<?xml version="1.0" standalone="no"?>
<!DOCTYPE svg PUBLIC "-//W3C//DTD SVG 20010904//EN"
 "http://www.w3.org/TR/2001/REC-SVG-20010904/DTD/svg10.dtd">
<svg version="1.0" xmlns="http://www.w3.org/2000/svg"
 width="625.000000pt" height="625.000000pt" viewBox="0 0 625.000000 625.000000"
 preserveAspectRatio="xMidYMid meet">
<metadata>
Created by potrace 1.14, written by Peter Selinger 2001-2017
</metadata>
<g transform="translate(0.000000,625.000000) scale(0.100000,-0.100000)"
fill="#000000" stroke="none">
<path d="M2475 5622 c-71 -7 -238 -78 -248 -104 -2 -7 0 -22 6 -33 11 -22 103
-136 139 -172 13 -13 20 -23 16 -23 -3 0 11 -17 31 -37 20 -21 50 -54 66 -74
l30 -37 840 -6 c462 -4 893 -7 958 -7 l118 0 52 43 c28 24 95 78 147 121 52
43 110 92 128 108 l32 30 -36 32 c-85 74 -171 117 -289 143 -45 9 -221 13
-720 14 -363 1 -790 3 -950 4 -159 1 -303 0 -320 -2z"/>
<path d="M2132 5446 c-71 -81 -111 -156 -136 -251 -13 -51 -70 -371 -82 -458
-2 -15 -11 -58 -20 -95 -8 -37 -17 -87 -20 -112 -2 -25 -11 -76 -19 -115 -8
-38 -32 -178 -55 -310 -22 -132 -43 -248 -46 -258 -3 -10 -7 -30 -9 -45 -2
-15 -16 -94 -30 -177 -15 -82 -29 -163 -31 -180 -4 -23 3 -39 29 -70 19 -22
62 -74 97 -115 34 -41 66 -75 71 -75 5 0 73 53 152 118 l144 119 23 126 c13
70 24 137 26 149 1 11 10 61 19 110 21 109 19 97 50 278 14 83 32 184 40 225
15 76 17 89 30 170 3 25 19 115 35 200 16 85 31 175 35 200 3 25 8 59 12 75 4
17 7 37 8 45 2 8 6 38 9 65 7 50 7 50 -49 115 -90 105 -98 114 -140 165 -22
27 -57 68 -77 92 l-36 42 -30 -33z"/>
<path d="M4789 5357 c-91 -78 -129 -108 -134 -107 -3 0 -14 -8 -23 -18 -9 -10
-48 -45 -87 -78 -85 -72 -82 -68 -90 -124 -3 -25 -8 -58 -10 -75 -2 -16 -18
-104 -35 -195 -17 -91 -38 -205 -46 -255 -7 -49 -21 -124 -29 -165 -8 -41 -17
-91 -20 -110 -4 -39 -7 -57 -36 -215 -10 -60 -21 -117 -24 -125 -2 -8 -11 -62
-19 -120 -9 -58 -18 -116 -22 -130 -3 -14 -8 -41 -11 -60 -3 -19 -11 -66 -18
-103 l-13 -69 85 -101 c132 -157 110 -147 184 -87 35 28 89 73 119 100 30 26
67 58 82 71 25 21 31 40 53 160 13 74 27 160 31 190 3 30 8 58 11 62 2 4 6 22
9 40 2 18 6 43 9 57 3 14 7 43 11 65 3 22 9 56 14 75 5 19 12 58 15 85 4 28
20 124 37 215 16 91 32 181 35 200 2 19 11 71 19 115 8 44 17 92 19 106 2 14
11 64 19 109 37 192 12 351 -75 488 -17 27 -27 27 -60 -1z"/>
<path d="M2161 3342 c-25 -20 -89 -74 -143 -120 -54 -46 -98 -85 -98 -88 0 -2
8 -14 19 -26 113 -136 147 -176 162 -192 17 -18 37 -20 296 -22 153 -2 585 -4
961 -4 l684 -1 45 38 c25 21 74 61 109 89 90 73 134 112 134 120 0 6 -63 84
-105 130 -5 6 -29 34 -53 62 l-43 51 -962 0 -962 1 -44 -38z"/>
<path d="M1725 2979 c-71 -61 -133 -114 -138 -118 -4 -4 -18 -70 -32 -147 -14
-76 -29 -153 -34 -171 -5 -17 -7 -33 -5 -36 2 -2 -4 -49 -15 -103 -10 -54 -28
-153 -40 -219 -12 -66 -30 -167 -41 -225 -11 -58 -22 -118 -24 -135 -7 -50
-46 -272 -72 -413 -27 -148 -30 -243 -12 -323 15 -65 88 -214 105 -214 11 0
87 62 294 237 63 53 68 62 80 115 6 32 12 65 12 73 -1 8 5 44 13 80 7 36 22
117 33 180 12 63 36 205 56 315 19 110 35 210 35 223 0 12 5 22 11 22 5 0 7 5
4 10 -4 6 -2 34 4 63 6 28 12 63 15 77 2 14 12 68 21 120 9 52 25 142 35 200
11 58 21 119 24 135 2 17 7 42 10 58 3 15 8 38 11 51 4 20 -14 46 -91 138 -53
62 -104 114 -113 115 -9 2 -74 -47 -146 -108z"/>
<path d="M4245 2988 c-170 -141 -172 -142 -178 -185 -3 -21 -24 -144 -47 -273
-22 -129 -52 -298 -65 -375 -13 -77 -31 -176 -39 -220 -38 -215 -115 -656
-121 -705 -4 -24 -9 -48 -12 -53 -6 -11 14 -40 89 -129 35 -41 83 -99 108
-128 25 -30 60 -71 79 -92 l34 -39 24 23 c53 50 109 148 136 238 14 46 49 233
73 385 3 22 12 69 20 105 8 36 15 72 15 80 1 16 25 166 34 210 3 14 18 102 35
195 16 94 38 224 50 290 12 66 30 172 41 235 10 63 26 151 34 195 20 109 20
106 -25 158 -22 25 -40 47 -40 50 0 3 -12 18 -28 34 -15 15 -38 42 -52 58 -14
17 -30 34 -35 37 -6 3 -64 -39 -130 -94z"/>
<path d="M1758 1078 c-31 -27 -59 -48 -61 -48 -2 0 -23 -18 -47 -40 -23 -22
-47 -37 -53 -33 -6 3 -7 1 -4 -4 4 -6 -10 -24 -31 -39 -20 -16 -48 -39 -62
-51 -14 -13 -28 -23 -32 -23 -15 0 -8 -19 17 -44 36 -36 107 -83 160 -106 116
-50 95 -49 1145 -52 904 -2 990 -1 1048 15 68 18 154 57 189 84 l22 18 -93
112 c-51 62 -111 134 -133 160 -23 26 -49 58 -59 71 l-19 22 -965 3 -965 2
-57 -47z"/>
</g>
</svg>
